<svg id="Layer_1" data-name="Layer 1" xmlns="http://www.w3.org/2000/svg" viewBox="0 0 459.34 207.54"><defs><style>.cls-1{fill:#12284c;}.cls-2{fill:#ff4713;}</style></defs><path class="cls-1" d="M349.38,364.42l.68.66c5.7,5.41,12.37,7.19,21,7.19,12.45,0,22.06-6.52,22.06-18,0-5.26-1.42-9.61-4.6-12.61-2.5-2.34-5.93-3.85-11.36-4.6l-7-1a10.17,10.17,0,0,1-5.51-2.34,5.75,5.75,0,0,1-1.75-4.26c0-4.09,3-7.52,9.19-7.52,3.92,0,8.43.5,12.19,4.09.27.26.45.45.67.69l6.69-7.95c-.23-.22-.45-.43-.68-.63-4.94-4.47-10.71-6.31-18.54-6.31-12.87,0-20.72,7.44-20.72,18.05,0,5,1.42,8.85,4.26,11.69,2.68,2.59,6.44,4.18,11.53,4.93l7.19,1c2.75.42,4.09,1,5.26,2.09a6.65,6.65,0,0,1,1.84,5c0,4.76-3.68,7.35-10.53,7.35-5.25,0-10.13-1.14-13.83-4.5h0l0,0a12.19,12.19,0,0,1-1.12-1.15Z" transform="translate(-191.28 -193.97)"/><rect class="cls-2" x="145.59" y="82.08" width="5.89" height="43.57"/><rect class="cls-2" x="112.13" y="100.92" width="62.03" height="5.89"/><rect class="cls-2" x="311.37" y="293.62" width="59.41" height="5.89" transform="translate(-301.08 134.02) rotate(-44.99)"/><rect class="cls-2" x="338.08" y="282.94" width="5.89" height="32.23" transform="translate(-302.85 134.76) rotate(-45)"/><path class="cls-1" d="M302.55,401.51H290.78V317.57a5.89,5.89,0,0,1,10.31-3.89L333.92,351V322.64h11.77v44a5.88,5.88,0,0,1-10.3,3.88l-32.84-37.33Z" transform="translate(-191.28 -193.97)"/><path class="cls-1" d="M383,283.94a5.91,5.91,0,0,1-4.42-2L345.69,244.6v28.23H333.92V229a5.89,5.89,0,0,1,10.31-3.88l32.83,37.33V194h11.77v84.08a5.89,5.89,0,0,1-3.8,5.51A6.06,6.06,0,0,1,383,283.94Z" transform="translate(-191.28 -193.97)"/><path class="cls-1" d="M213.17,283.69a22,22,0,0,1-16-6.51c-6-6-5.84-13.45-5.84-23.73s-.17-17.71,5.84-23.73a21.92,21.92,0,0,1,16-6.51c11.11,0,19.8,6.35,21.89,18.79H223.28c-1.17-4.76-4.18-8.43-10-8.43a9.62,9.62,0,0,0-7.44,3.09c-2.25,2.5-2.92,5.34-2.92,16.79s.67,14.29,2.92,16.79a9.62,9.62,0,0,0,7.44,3.09c5.85,0,8.86-3.67,10-8.43h11.78C233,277.35,224.19,283.69,213.17,283.69Z" transform="translate(-191.28 -193.97)"/><path class="cls-1" d="M272.55,283.19v-24.6H251.39v24.6H239.78V223.71h11.61v24.6h21.16v-24.6h11.61v59.48Z" transform="translate(-191.28 -193.97)"/><path class="cls-1" d="M290.94,283.19V223.71H328.5v10.36H302.56v14.24H324.4v10.28H302.56v14.24H328.5v10.36Z" transform="translate(-191.28 -193.97)"/><path class="cls-1" d="M613.06,371.77V312.28h37.55v10.36H624.67v14.25h21.85v10.27H624.67v14.25h25.94v10.36Z" transform="translate(-191.28 -193.97)"/><path class="cls-1" d="M413.94,226.32V251H411V226.32h-7.89v-2.61h18.68v2.61Z" transform="translate(-191.28 -193.97)"/><path class="cls-1" d="M425,251V223.71h2.91V251Z" transform="translate(-191.28 -193.97)"/><path class="cls-1" d="M450.28,251l-2.19-6.17h-11.9L434,251h-3.1l10-27.27h2.45l10,27.27Zm-8.08-23.09-5.13,14.39h10.18Z" transform="translate(-191.28 -193.97)"/><path class="cls-1" d="M473.21,251l-14.47-21.87V251h-2.91V223.71h2.76l14.47,21.79V223.71H476V251Z" transform="translate(-191.28 -193.97)"/><path class="cls-1" d="M498.46,252.32l-3-3a9.51,9.51,0,0,1-5.85,1.92,9.64,9.64,0,0,1-7-2.84c-2.57-2.56-2.57-5.24-2.57-11s0-8.46,2.57-11a10,10,0,0,1,13.93,0c2.57,2.56,2.57,5.24,2.57,11,0,5.21,0,7.89-1.88,10.23l3,3ZM494.29,228a6.66,6.66,0,0,0-9.42,0c-1.73,1.76-1.92,3.6-1.92,9.3s.19,7.55,1.92,9.31a6.6,6.6,0,0,0,4.71,1.95,6.28,6.28,0,0,0,3.86-1.3L490,243.85l1.76-1.76,3.33,3.33c1-1.6,1.11-3.71,1.11-8.08C496.2,231.64,496,229.8,494.29,228Z" transform="translate(-191.28 -193.97)"/><path class="cls-1" d="M504.25,251V223.71h2.91V251Z" transform="translate(-191.28 -193.97)"/><path class="cls-1" d="M529.78,251l-2.18-6.17H515.69L513.51,251h-3.1l10-27.27h2.45l10,27.27Zm-8.08-23.09-5.13,14.39h10.19Z" transform="translate(-191.28 -193.97)"/><path class="cls-1" d="M550.8,248.37a10,10,0,0,1-13.94,0c-2.56-2.56-2.56-5.24-2.56-11s0-8.46,2.56-11a10,10,0,0,1,13.94,0c2.56,2.56,2.56,5.24,2.56,11S553.36,245.81,550.8,248.37ZM548.54,228a6.66,6.66,0,0,0-9.42,0c-1.72,1.76-1.91,3.6-1.91,9.3s.19,7.55,1.91,9.31a6.66,6.66,0,0,0,9.42,0c1.72-1.76,1.91-3.6,1.91-9.31S550.26,229.8,548.54,228Z" transform="translate(-191.28 -193.97)"/><path class="cls-1" d="M422.77,283.17l-2.45-3a11.4,11.4,0,0,1-8,3.21c-5.28,0-8.62-3.17-8.62-7.92,0-4.1,2.91-6.17,5.9-8.16-1.34-1.61-2.95-3.48-2.95-5.93a6,6,0,0,1,11.95,0c0,2.19-1.3,3.68-3,4.87,0,0-1.37.92-2,1.38l7,8.38c1.11-1.68,1.5-3.18,1.53-6.24h2.76c0,3.45-.76,6.24-2.53,8.35l4.18,5Zm-11.6-14c-2.34,1.61-4.67,3.14-4.67,6.24,0,3.26,2.37,5.44,5.74,5.44a9,9,0,0,0,6.43-2.64Zm1.45-11a3,3,0,0,0-3.14,3.18c0,1.26.65,2.3,2.45,4.48l1.46-1c1.26-.88,2.45-1.83,2.45-3.41A3.18,3.18,0,0,0,412.62,258.17Z" transform="translate(-191.28 -193.97)"/><path class="cls-1" d="M443.07,283.4a9.67,9.67,0,0,1-7-2.83c-2.57-2.56-2.57-5.25-2.57-11s0-8.46,2.57-11a9.71,9.71,0,0,1,7-2.83c4.91,0,8.54,3,9.46,8.12h-3c-.72-3.33-3.06-5.52-6.47-5.52a6.55,6.55,0,0,0-4.71,1.92c-1.72,1.76-1.91,3.64-1.91,9.34s.19,7.58,1.91,9.35a6.59,6.59,0,0,0,4.71,1.91,6.52,6.52,0,0,0,6.55-5.51h2.91A9.19,9.19,0,0,1,443.07,283.4Z" transform="translate(-191.28 -193.97)"/><path class="cls-1" d="M473.06,283.17V270.73H458.74v12.44h-2.91V255.91h2.91v12.22h14.32V255.91H476v27.26Z" transform="translate(-191.28 -193.97)"/><path class="cls-1" d="M496.43,283.17l-6.2-12.1h-6.55v12.1h-2.91V255.91h10.45c4.75,0,8.08,2.87,8.08,7.58a7.07,7.07,0,0,1-5.93,7.32l6.47,12.36ZM491,258.51h-7.27v10H491c3.18,0,5.44-1.65,5.44-5S494.13,258.51,491,258.51Z" transform="translate(-191.28 -193.97)"/><path class="cls-1" d="M504.25,283.17V255.91h2.91v27.26Z" transform="translate(-191.28 -193.97)"/><path class="cls-1" d="M519.75,283.4c-4.1,0-6.78-1-9.34-3.59l2-2a9.36,9.36,0,0,0,7.43,3c4,0,6.43-1.88,6.43-5.05a4.38,4.38,0,0,0-1.3-3.41c-.88-.77-1.57-1-3.56-1.3l-3.18-.5a10,10,0,0,1-5-2.07,6.42,6.42,0,0,1-2.06-5.09c0-4.64,3.33-7.7,8.73-7.7a10.91,10.91,0,0,1,8.11,3l-1.87,1.87a8.61,8.61,0,0,0-6.36-2.33c-3.64,0-5.74,2-5.74,5.05a3.93,3.93,0,0,0,1.22,3.14,7.86,7.86,0,0,0,3.68,1.5l3,.46c2.56.38,3.82.91,5,1.91a6.8,6.8,0,0,1,2.3,5.4C529.17,280.46,525.42,283.4,519.75,283.4Z" transform="translate(-191.28 -193.97)"/><path class="cls-1" d="M540.6,283.4c-4.1,0-6.78-1-9.35-3.59l2-2a9.38,9.38,0,0,0,7.43,3c4,0,6.43-1.88,6.43-5.05a4.38,4.38,0,0,0-1.3-3.41c-.88-.77-1.57-1-3.56-1.3l-3.18-.5a10,10,0,0,1-5-2.07,6.43,6.43,0,0,1-2.07-5.09c0-4.64,3.33-7.7,8.73-7.7a11,11,0,0,1,8.12,3L547,260.54a8.57,8.57,0,0,0-6.35-2.33c-3.64,0-5.75,2-5.75,5.05a3.9,3.9,0,0,0,1.23,3.14,7.82,7.82,0,0,0,3.67,1.5l3,.46c2.56.38,3.83.91,5,1.91a6.83,6.83,0,0,1,2.29,5.4C550,280.46,546.26,283.4,540.6,283.4Z" transform="translate(-191.28 -193.97)"/><path class="cls-1" d="M561.86,271.92v11.25H559V271.92l-8.12-16H554L560.4,269l6.36-13.06h3.14Z" transform="translate(-191.28 -193.97)"/><path class="cls-1" d="M272.55,371.77V312.28h11.61v59.49Z" transform="translate(-191.28 -193.97)"/><path class="cls-1" d="M424.13,322.64v49.13H412.52V322.64H396V312.28H440.7v10.36Z" transform="translate(-191.28 -193.97)"/><path class="cls-1" d="M446.19,371.77V312.28h11.62v59.49Z" transform="translate(-191.28 -193.97)"/><path class="cls-1" d="M491.48,322.64v49.13H479.87V322.64H463.31V312.28h44.74v10.36Z" transform="translate(-191.28 -193.97)"/><path class="cls-1" d="M535.43,372.27c-12.19,0-21.89-8.27-21.89-20.89v-39.1h11.62V351c0,6.86,4,11,10.27,11s10.36-4.09,10.36-11V312.28h11.53v39.1C557.32,364,547.63,372.27,535.43,372.27Z" transform="translate(-191.28 -193.97)"/><path class="cls-1" d="M591,322.64v49.13H579.39V322.64H562.82V312.28h44.74v10.36Z" transform="translate(-191.28 -193.97)"/></svg>